<?xml version="1.0" encoding="UTF-8"?>
<svg id="Layer_1" xmlns="http://www.w3.org/2000/svg" version="1.1" viewBox="0 0 1080 1080">
  <!-- Generator: Adobe Illustrator 29.3.0, SVG Export Plug-In . SVG Version: 2.1.0 Build 146)  -->
  <defs>
    <style>
      .st0 {
        fill: #f9a97a;
        stroke: #000;
        stroke-miterlimit: 10;
      }

      .st1 {
        fill: #efe9d4;
      }
    </style>
  </defs>
  <rect class="st1" x="268.3" y="268.3" width="543.4" height="543.4" rx="271.7" ry="271.7"/>
  <path class="st0" d="M570.9,673.1c-25.3,9.7-55.2,9.2-77.8-4.8-17.6-10.9-31.9-23.3-39.7-42.5-4.5-11-9.2-22.7-11.1-34.6-6.5-40.8.3-78.8,16.6-116.2,11.6-26.5,30.7-47.7,54.5-64.7,22.5-16.2,47.7-11.3,68,5.4,16.5,13.5,29.5,34.7,38.9,53.4,28.5,56.8,27.9,120.3-10,172.5-10.4,14.3-20.9,24.5-39.3,31.5Z"/>
</svg>