<?xml version="1.0" encoding="UTF-8"?>
<svg id="Layer_1" xmlns="http://www.w3.org/2000/svg" version="1.1" viewBox="0 0 1080 1080">
  <!-- Generator: Adobe Illustrator 29.3.0, SVG Export Plug-In . SVG Version: 2.1.0 Build 146)  -->
  <defs>
    <style>
      .st0 {
        fill: #fefaf4;
      }

      .st0, .st1 {
        stroke: #000;
        stroke-miterlimit: 10;
      }

      .st1 {
        fill: #f8d80d;
      }

      .st2 {
        fill: #efe9d4;
      }
    </style>
  </defs>
  <rect class="st2" x="343.9" y="362.9" width="371" height="387.8" rx="182.4" ry="182.4"/>
  <path class="st0" d="M462.2,737.1c10.3,2.3,20.9,3.3,31.3,1.1,8.8-1.8,16.6-3.7,24.3-7.8,9.8-5.1,20.3-10.6,28-18.4,11.3-10.4,19.3-24.1,30.6-34.7,7.1-7.5,15.8-12.9,25-17.8,5.2-2.9,9.3-5.3,14.1-8.3,8.1-5.1,16.5-10,23.3-16.7,8.7-7.8,15.6-16.4,21.6-26.3,5.3-7.7,8.8-15.9,12-24.8,2.8-7.4,5.2-13.9,6.6-21.8,3.4-16.2,5.2-32.5,4.8-49.1-.8-24.9-8.1-47.3-20.2-68.9-6.9-11.7-13.5-24-24.1-32.9-10.5-10-24.9-14.5-38.8-16.5-8.4-1.4-17.5-.8-26.1-.7-30.5,1.6-31.4-20-56-24.6-25.4-4.9-45.3,5.5-66,19-8.1,5.2-15.5,10.8-21.8,18.1-9,9.9-15.6,20.4-21.6,32.3-4.7,9.2-8.4,19.7-11,29.8-1.5,6.5-1.5,14-1.5,20.8-.1,9.6,2,17.6,5.6,26.4,4.5,11.7,13.8,21.6,14.9,34.6,1,10.2-2.2,19.7-4.4,29.6-5.6,23.5-13.1,47.7-11.5,72.3.9,18,6.2,36,16.1,51,7.4,10.9,16.8,19.8,28.3,26.7,5.2,3.1,10.6,6,16.4,7.4h.2Z"/>
  <path class="st1" d="M526.1,463.1c-53.9,16.3-72.1,92.3-30.9,131.3,54.9,52.3,138.5-.3,125.5-72.2-7.2-43.8-51.5-72.5-94.1-59.2h-.4Z"/>
</svg>