<?xml version="1.0" encoding="UTF-8"?>
<svg id="Layer_1" xmlns="http://www.w3.org/2000/svg" version="1.1" viewBox="0 0 1920 1080">
  <!-- Generator: Adobe Illustrator 29.3.0, SVG Export Plug-In . SVG Version: 2.1.0 Build 146)  -->
  <defs>
    <style>
      .st0 {
        fill: #050505;
      }

      .st1 {
        fill: #f5f1e4;
      }

      .st1, .st2, .st3, .st4, .st5, .st6, .st7, .st8, .st9, .st10, .st11, .st12, .st13, .st14, .st15, .st16, .st17, .st18, .st19 {
        stroke: #000;
        stroke-miterlimit: 10;
      }

      .st2 {
        fill: #b1d3d3;
      }

      .st20 {
        fill: #8a750e;
      }

      .st3 {
        fill: #f2f2f2;
      }

      .st4 {
        fill: #dbe7e3;
      }

      .st5 {
        fill: #554b1f;
      }

      .st21, .st8 {
        fill: #606060;
      }

      .st6, .st7, .st16 {
        stroke-width: .8px;
      }

      .st7 {
        fill: #b5b5b5;
      }

      .st9 {
        fill: none;
      }

      .st10 {
        fill: #ecebe1;
      }

      .st11 {
        fill: #fefaf4;
      }

      .st12 {
        fill: #f9a97a;
      }

      .st13 {
        fill: #fffedd;
      }

      .st14 {
        fill: #fefefe;
      }

      .st15 {
        fill: #f1ead6;
      }

      .st16 {
        fill: #4d4d4d;
      }

      .st17 {
        fill: #8b7838;
      }

      .st18 {
        fill: #fbe30f;
      }

      .st19 {
        fill: #eceb8c;
      }
    </style>
  </defs>
  <rect class="st20" x="-.3" y=".2" width="1920" height="185.2"/>
  <rect class="st13" x="-.3" y="896.4" width="960" height="183.8"/>
  <rect class="st13" x="959.7" y="896.4" width="960" height="183.8"/>
  <rect class="st13" x="-.3" y="185.4" width="1920" height="668.7"/>
  <rect class="st19" x="-.3" y="854.2" width="1920" height="42.2"/>
  <line class="st9" x1="54.1" y1=".2" x2="54.1" y2="185.4"/>
  <line class="st9" x1="159.8" y1=".2" x2="159.8" y2="185.4"/>
  <line class="st9" x1="265.5" y1=".2" x2="265.5" y2="185.4"/>
  <line class="st9" x1="371.2" y1=".2" x2="371.2" y2="185.4"/>
  <line class="st9" x1="476.9" y1=".2" x2="476.9" y2="185.4"/>
  <line class="st9" x1="582.6" y1=".2" x2="582.6" y2="185.4"/>
  <line class="st9" x1="688.3" y1=".2" x2="688.3" y2="185.4"/>
  <line class="st9" x1="794" y1=".2" x2="794" y2="185.4"/>
  <line class="st9" x1="899.7" y1=".2" x2="899.7" y2="185.4"/>
  <line class="st9" x1="1005.5" y1=".2" x2="1005.5" y2="185.4"/>
  <line class="st9" x1="1111.2" y1=".2" x2="1111.2" y2="185.4"/>
  <line class="st9" x1="1216.9" y1=".2" x2="1216.9" y2="185.4"/>
  <line class="st9" x1="1322.6" y1=".2" x2="1322.6" y2="185.4"/>
  <line class="st9" x1="1428.3" y1=".2" x2="1428.3" y2="185.4"/>
  <line class="st9" x1="1534" y1=".2" x2="1534" y2="185.4"/>
  <line class="st9" x1="1639.7" y1=".2" x2="1639.7" y2="185.4"/>
  <line class="st9" x1="1745.4" y1=".2" x2="1745.4" y2="185.4"/>
  <line class="st9" x1="1850" y1=".2" x2="1850" y2="185.4"/>
  <line class="st9" x1="-.3" y1="70.4" x2="1919.7" y2="70.4"/>
  <g>
    <circle class="st17" cx="837.5" cy="993.7" r="23.8"/>
    <circle class="st17" cx="1076" cy="993.7" r="23.8"/>
  </g>
  <circle class="st5" cx="837.5" cy="993.7" r="9"/>
  <circle class="st5" cx="1076" cy="993.7" r="9"/>
  <g>
    <path class="st10" d="M74.2,308.6v80.2c0,42.4,34.3,76.7,76.7,76.7h158.7c42.4,0,76.7-34.3,76.7-76.7v-13.3l18.7-1.4c1.1,0,2-1,2-2.2v-36.5c0-1.2-.9-2.1-2.1-2.2l-18.6-1.1v-23.6c0-42.4-34.3-76.7-76.7-76.7h-158.7c-42.4,0-76.7,34.3-76.7,76.7Z"/>
    <rect class="st7" x="163.1" y="245.7" width="134.3" height="210.3" rx="20" ry="20" transform="translate(-120.6 581) rotate(-90)"/>
    <rect class="st6" x="196.1" y="223.1" width="47.7" height="179.7" rx="11.9" ry="11.9" transform="translate(-92.9 532.9) rotate(-90)"/>
    <rect class="st0" x="196.1" y="300.2" width="47.7" height="179.7" rx="11.9" ry="11.9" transform="translate(-170.1 610) rotate(-90)"/>
    <rect class="st16" x="137.9" y="374" width="164.1" height="32.1" rx="7.1" ry="7.1"/>
    <rect class="st16" x="137.9" y="294.2" width="164.1" height="32.1" rx="7.1" ry="7.1"/>
  </g>
  <g>
    <path class="st2" d="M1866.6,606.2c-50.3,0-97.5-19.6-133.1-55.1-35.6-35.6-55.1-82.8-55.1-133.1s19.6-97.5,55.1-133.1c35.6-35.6,82.8-55.1,133.1-55.1s97.5,19.6,133.1,55.1,55.1,82.8,55.1,133.1-19.6,97.5-55.1,133.1c-35.6,35.6-82.8,55.1-133.1,55.1ZM1791.1,536.4c7.3,4.6,14.5,8.3,22.1,11.3,1.2.5,2.3.9,3.4,1.4,4.3,1.7,8.4,3.4,12.6,4.3l8.7,1.9c8.6,1.9,18.6,2.9,28.8,2.9s8.7-.2,12.8-.5c13.1-1.1,25.3-4.1,40.9-10,0,0,.4-.2.6-.3.8-.5,2-1.2,3.7-1.6.6-.2,1.5-.7,2.5-1.3,1.4-.8,3.1-1.8,5.2-2.5.5-.2,1.4-.7,2.3-1.3,1-.7,2.1-1.4,3.5-2.1,3-1.5,5.9-3.6,9.1-5.9.8-.6,1.5-1,2.1-1.4.5-.3.8-.5,1.1-.7l3.9-3.1c.7-.5,1.3-1,2-1.5.8-.6,1.6-1.1,2-1.6l8.1-7.9c2.6-2.5,5-4.8,7-7.4l5.9-7.7c2.2-2.8,4.7-6.2,6.7-9.9l6.5-11.7c1.9-3.4,7-16.3,8-20l1.2-4.6c.3-1.1.6-2.2.9-3.2.4-1.5.8-2.8,1.1-4.2l2.4-13.6c.1-.8.1-1.8.2-3,0-1.3,0-2.8.2-4.4.8-6.1.3-21.5-.6-27-1.9-11.4-4.6-24.8-10.5-37.6-.3-.6-.5-1.1-.7-1.6-.9-1.8-1.7-3.7-2.6-5.8-1-1.8-4.4-8.1-5.1-9.2.7,1,2.6,2.7,5.4,2.7v-6.4l-6.2,2.4c-1.2-3.1-12-17.3-15.6-21-.3-.3-.6-.7-.9-1,0,0-.2-.2-.2-.3-1.5-.5-2.8-1.6-7.9-6.5-1.4-1.3-5.2-5.1-6.1-6.1v-.2c-1.6-1.8-2.5-2.8-4-3.9-1.1-.7-2.1-1.5-3.2-2.2-4.1-2.9-8-5.6-12.1-7.7l-8.5-4.2c-6.1-3-11-5.3-17.2-6.8-1.1-.3-2.2-.7-3-1.1-.4-.2-.8-.4-1.1-.4-5.4-1.7-10.6-2.7-15.5-3.6-7.8-1.5-15.9-2.2-24-2.2-15.9,0-31.8,2.8-47.4,8.2-14.3,5-27.5,12.3-40.3,22.4-7.2,5.6-13.7,12-20.5,20-8.2,9.7-15.3,21.3-21.4,35.3-.9,2-1.7,3.9-2.4,5.9l-1.9,5.5c-1,2.9-3.8,14.3-4.4,17.9-2.2,13.9-3.3,26.4-1.2,41.9,1.3,9.4,2.7,16.3,4.5,22.4l2.5,8.1c5.7,18.8,22,42.9,38.6,57.4,1,.8,2.2,1.6,3.4,2.5.7.5,1.5,1,2.3,1.5l6.2,4.4c.9.6,1.8,1.3,2.7,2.1l-.4.7c.7.6,2.5,1.8,3.8,2.6,0,0,.1,0,.2.1Z"/>
    <path class="st4" d="M2048.1,418c0,100.2-81.2,181.5-181.5,181.5s-181.5-81.2-181.5-181.5,81.2-181.5,181.5-181.5,181.5,81.2,181.5,181.5ZM1782.9,538c-4-1.3,4.9,4.4,4.5,4.1,7.5,4.7,15.1,8.7,23.3,11.9,5.7,2.2,11.1,4.7,17,6l8.7,1.9c13.8,3,29.6,3.7,43.7,2.5,15.4-1.3,28.5-5,42.7-10.4s2.2-1.3,3.6-1.7c2.9-.8,5.1-2.9,8.1-3.8s4.3-2.7,6.7-3.8c3.6-1.8,6.9-4.2,10.1-6.6,1.2-.9,2.2-1.3,3.4-2.3l3.9-3.1c1.4-1.1,3.2-2.2,4.5-3.5l7.2-7c3-2.9,6-5.7,8.6-9l5.9-7.7c2.7-3.5,5.2-7,7.3-10.7l6.5-11.7c2.2-3.9,7.5-17.3,8.6-21.6l1.2-4.6c.7-2.6,1.6-5.1,2.1-7.8l2.4-13.6c.5-2.5,0-5.1.4-7.7.9-6.6.4-22.6-.6-29-2.2-13.5-5.2-26.7-11-39.3-1.2-2.6-2.3-4.8-3.3-7.4s-6.9-12.7-5.8-10c-1.7-4.4-13.3-19.5-17.1-23.3-1.3-1.4-2-2.4-3.7-2.9s-10.3-9.6-11.2-10.6c-1.7-2-3.1-3.6-5.3-5.2-5.3-3.7-10.4-7.6-16.2-10.4l-8.5-4.2c-6.4-3.1-11.7-5.6-18.5-7.3-1.1-.3-2.4-1-3.7-1.4-5.4-1.7-10.6-2.8-16.2-3.8-25-4.8-51-2.1-75,6.3-15.5,5.4-29.4,13.3-42.2,23.4-8,6.3-14.8,13.1-21.5,21-9.4,11.1-16.6,23.6-22.5,37-1,2.2-1.8,4.2-2.6,6.4l-1.9,5.5c-1.2,3.5-4.1,15.3-4.7,19-2.4,15.4-3.3,28.3-1.2,43.9,1,7.8,2.4,15.9,4.8,23.5l2.5,8.1c6.4,21,24.1,46.1,40.6,60.6,2,1.7,4.2,3,6.3,4.4l5.9,4.1c.9.6,1.6,1.1,2.3,1.8Z"/>
    <path class="st2" d="M1971.5,316.2c37.2,41.1,47.2,103.1,25.7,153.9-34.8,83.4-136.1,116.2-213,68.6-63.2-39.1-82.5-126.5-47-190.7,32.3-61.5,108.3-92.3,174.3-70.2,23.3,7.5,43.8,19.5,59.9,38.3h0Z"/>
    <path class="st14" d="M1782.9,538c1.5,1.4,3.6,2.1,5.5,3.2,13.8,8,32.7,15.1,48.5,17.4l6.2.9c25,3.6,52-.5,75.3-10.3,8.5-3.5,16.2-8,24.1-12.8s4.5-3.2,6.7-4.9l4.9-3.7c16.8-12.8,34.1-35.8,42.1-55.5,1.3-3.2,2.9-6,3.7-9.3s.6-2.1,1.2-3.3c1-2,4.4-16.4,4.9-19.6l.7-4.3c1.6-9.6,1.7-16.1,1.6-25.7,0-5.4-.2-10.4-1.1-15.7l-1.3-7.7c-1.3-7.9-5-21-8.3-28.2-2.3-5-4.1-10.2-6.9-14.9s-3.2-6-5.3-8.8c-.9-1.2-1.3-2.3-2.2-3.5l-8-10.9c-1.1-1.5-3.5-2.4-3.7-4.6,1.7.5,2.3,1.5,3.7,2.9,3.8,3.8,15.4,18.9,17.1,23.3-1-2.7,5.8,10,5.8,10,1,2.6,2.1,4.9,3.3,7.4,5.8,12.5,8.8,25.8,11,39.3,1.1,6.4,1.5,22.4.6,29s0,5.1-.4,7.7l-2.4,13.6c-.5,2.7-1.4,5.2-2.1,7.8l-1.2,4.6c-1.1,4.4-6.4,17.7-8.6,21.6l-6.5,11.7c-2.1,3.8-4.6,7.3-7.3,10.7l-5.9,7.7c-2.6,3.3-5.6,6.1-8.6,9l-7.2,7c-1.3,1.3-3.1,2.3-4.5,3.5l-3.9,3.1c-1.2.9-2.2,1.4-3.4,2.3-3.2,2.4-6.5,4.8-10.1,6.6s-4.3,3.1-6.7,3.8-5.2,3.1-8.1,3.8-2.3,1.2-3.6,1.7c-14.2,5.4-27.3,9.1-42.7,10.4-14.1,1.2-29.9.5-43.7-2.5l-8.7-1.9c-6-1.3-11.4-3.8-17-6-8.2-3.3-15.8-7.2-23.3-11.9.4.3-8.5-5.3-4.5-4.1Z"/>
  </g>
  <g>
    <path class="st15" d="M476.9,822.9c-49.5,0-96.1-19.3-131.1-54.3-35-35-54.3-81.6-54.3-131.1s19.3-96.1,54.3-131.1c35-35,81.6-54.3,131.1-54.3s96.1,19.3,131.1,54.3c35,35,54.3,81.6,54.3,131.1s-19.3,96.1-54.3,131.1c-35,35-81.6,54.3-131.1,54.3ZM402.6,754.2c7.2,4.5,14.3,8.2,21.7,11.1,1.1.4,2.3.9,3.4,1.4,4.2,1.7,8.2,3.4,12.4,4.3l8.5,1.9c8.5,1.9,18.3,2.9,28.4,2.9s8.5-.2,12.6-.5c12.9-1.1,24.9-4,40.2-9.9,0,0,.4-.2.6-.3.8-.5,2-1.1,3.7-1.6.6-.2,1.5-.7,2.5-1.2,1.4-.8,3.1-1.8,5.1-2.4.5-.2,1.4-.7,2.2-1.3,1-.7,2.1-1.4,3.4-2.1,3-1.5,5.8-3.5,8.9-5.8.8-.6,1.5-1,2-1.3.5-.3.8-.5,1.1-.7l3.8-3c.7-.5,1.3-1,2-1.5.8-.6,1.5-1.1,2-1.6l8-7.8c2.5-2.4,4.9-4.8,6.9-7.3l5.9-7.6c2.2-2.8,4.6-6.1,6.6-9.7l6.4-11.5c1.9-3.3,6.9-16,7.9-19.7l1.1-4.5c.3-1.1.6-2.1.9-3.1.4-1.4.8-2.8,1.1-4.1l2.4-13.4c.1-.8.1-1.8.2-2.9,0-1.3,0-2.7.2-4.3.8-6,.3-21.2-.6-26.6-1.9-11.2-4.5-24.4-10.3-37-.2-.5-.5-1.1-.7-1.6-.8-1.8-1.7-3.7-2.5-5.7-1-1.8-4.4-8-5.1-9,.7,1,2.5,2.7,5.3,2.7v-6.3l-6.1,2.4c-1.2-3-11.8-17.1-15.4-20.7-.3-.3-.6-.7-.9-1,0,0-.2-.2-.2-.3-1.5-.5-2.8-1.5-7.8-6.4-1.4-1.3-5.1-5-6-6v-.2c-1.6-1.7-2.5-2.8-4-3.8-1-.7-2.1-1.5-3.1-2.2-4-2.9-7.8-5.5-12-7.6l-8.4-4.1c-6.1-3-10.8-5.2-16.9-6.7-1.1-.3-2.1-.7-2.9-1-.4-.2-.8-.3-1-.4-5.3-1.6-10.4-2.7-15.3-3.6-7.7-1.5-15.6-2.2-23.7-2.2-15.6,0-31.3,2.7-46.7,8.1-14.1,5-27.1,12.2-39.7,22-7.1,5.6-13.5,11.8-20.2,19.7-8.1,9.6-15,21-21.1,34.8-.9,1.9-1.7,3.8-2.4,5.8l-1.9,5.4c-1,2.9-3.8,14.1-4.3,17.6-2.2,13.7-3.2,26-1.2,41.3,1.2,9.3,2.6,16.1,4.5,22.1l2.4,7.9c5.7,18.5,21.7,42.3,38,56.6,1,.8,2.1,1.6,3.4,2.4.7.5,1.5,1,2.2,1.5l6.1,4.3c.9.6,1.8,1.2,2.7,2.1l-.4.7c.7.6,2.4,1.7,3.7,2.6,0,0,.1,0,.2.1Z"/>
    <path class="st1" d="M655.7,637.5c0,98.7-80,178.8-178.8,178.8s-178.8-80-178.8-178.8,80-178.8,178.8-178.8,178.8,80,178.8,178.8ZM394.5,755.8c-3.9-1.2,4.9,4.3,4.4,4,7.4,4.7,14.8,8.5,22.9,11.7,5.6,2.2,10.9,4.6,16.8,5.9l8.5,1.9c13.6,3,29.2,3.6,43.1,2.5,15.2-1.3,28.1-5,42.1-10.3,1.3-.5,2.1-1.3,3.5-1.7,2.8-.7,5.1-2.9,7.9-3.8,2.4-.8,4.3-2.6,6.6-3.8,3.5-1.8,6.8-4.1,9.9-6.5s2.2-1.3,3.3-2.2l3.8-3c1.4-1.1,3.1-2.2,4.4-3.4l7.1-6.9c2.9-2.8,5.9-5.6,8.4-8.9l5.9-7.6c2.6-3.4,5.1-6.8,7.2-10.6l6.4-11.5c2.1-3.9,7.4-17,8.5-21.3l1.1-4.5c.7-2.6,1.6-5,2.1-7.7l2.4-13.4c.4-2.5,0-5,.4-7.5.8-6.5.4-22.3-.6-28.6-2.2-13.3-5.2-26.3-10.8-38.7s-2.3-4.8-3.3-7.3-6.8-12.5-5.7-9.9c-1.7-4.3-13.1-19.2-16.8-22.9s-1.9-2.4-3.6-2.8-10.2-9.5-11-10.5c-1.7-2-3-3.6-5.3-5.1-5.3-3.6-10.2-7.5-15.9-10.3l-8.4-4.1c-6.3-3.1-11.5-5.5-18.2-7.2s-2.4-1-3.6-1.4c-5.4-1.7-10.5-2.7-16-3.8-24.6-4.7-50.2-2.1-73.8,6.2-15.2,5.3-28.9,13.1-41.6,23.1-7.9,6.2-14.6,13-21.1,20.6-9.3,11-16.4,23.3-22.1,36.4-.9,2.1-1.8,4.2-2.6,6.3l-1.9,5.4c-1.2,3.5-4,15-4.6,18.8-2.4,15.2-3.2,27.8-1.2,43.2,1,7.7,2.4,15.7,4.7,23.2l2.4,7.9c6.3,20.7,23.7,45.4,40,59.6,2,1.7,4.1,2.9,6.2,4.4l5.8,4.1c.9.6,1.6,1.1,2.3,1.7Z"/>
    <path class="st15" d="M580.2,537.3c36.7,40.5,46.5,101.6,25.3,151.6-34.3,82.2-134.1,114.4-209.8,67.6-62.3-38.5-81.3-124.6-46.3-187.8,31.8-60.6,106.7-90.9,171.7-69.1,23,7.4,43.2,19.2,59,37.7h0Z"/>
    <path class="st14" d="M394.5,755.8c1.5,1.4,3.5,2,5.4,3.1,13.6,7.8,32.2,14.9,47.7,17.1l6.1.9c24.6,3.5,51.2-.5,74.2-10.1,8.3-3.5,15.9-7.9,23.7-12.6,2.3-1.4,4.4-3.2,6.6-4.8l4.8-3.6c16.6-12.6,33.6-35.3,41.5-54.7,1.3-3.1,2.9-5.9,3.7-9.2s.6-2.1,1.2-3.2c1-1.9,4.3-16.1,4.8-19.3l.7-4.2c1.6-9.4,1.7-15.9,1.5-25.3,0-5.3-.2-10.2-1.1-15.4l-1.3-7.5c-1.3-7.8-4.9-20.7-8.1-27.8s-4-10-6.8-14.6c-1.7-2.9-3.1-6-5.2-8.6s-1.3-2.3-2.1-3.4l-7.8-10.7c-1.1-1.5-3.4-2.3-3.6-4.5,1.7.4,2.3,1.5,3.6,2.8,3.7,3.8,15.2,18.6,16.8,22.9-1-2.6,5.7,9.8,5.7,9.9,1,2.6,2.1,4.8,3.3,7.3,5.7,12.3,8.7,25.4,10.8,38.7,1,6.3,1.5,22.1.6,28.6-.3,2.5,0,5-.4,7.5l-2.4,13.4c-.5,2.7-1.4,5.1-2.1,7.7l-1.1,4.5c-1.1,4.3-6.3,17.4-8.5,21.3l-6.4,11.5c-2.1,3.7-4.6,7.2-7.2,10.6l-5.9,7.6c-2.5,3.3-5.5,6-8.4,8.9l-7.1,6.9c-1.3,1.3-3,2.3-4.4,3.4l-3.8,3c-1.1.9-2.2,1.4-3.3,2.2-3.2,2.3-6.4,4.7-9.9,6.5-2.3,1.2-4.2,3-6.6,3.8-2.9.9-5.1,3-7.9,3.8s-2.3,1.2-3.5,1.7c-14,5.3-26.9,9-42.1,10.3-13.8,1.2-29.5.5-43.1-2.5l-8.5-1.9c-5.9-1.3-11.2-3.7-16.8-5.9-8.1-3.2-15.6-7.1-22.9-11.7.4.3-8.4-5.3-4.4-4Z"/>
  </g>
  <g>
    <path class="st11" d="M1874.4,303.2c27.2,0,52.4,17.1,67.6,38.9,11,15.8,16.2,34.8,16.4,53.9.2,24.5-7.8,48.6-20.4,69.6-11.8,20.1-30.6,36.8-54,41.5-17.9,3.9-36.8,1.5-53.9-4.9-34.8-12.3-60.5-44.1-54.4-82.2,3.5-23.2,17.2-42.8,28.9-62.4,6.9-11.2,13.7-22.6,22.7-32.2,12.1-13.1,28.9-22.2,46.9-22.2h.2Z"/>
    <path class="st18" d="M1913.4,399.5c6.7,35.5-33.7,61.7-65.3,49.8-25.9-9.7-35.5-35.9-24.1-60.8,7.4-19.4,27.8-29.3,47.7-29,22-.7,39.1,19,41.7,39.8v.3Z"/>
  </g>
  <rect class="st21" x="1919.7" y="-102.8" width="362.9" height="1613.9"/>
  <rect class="st8" x="698.9" y="216.7" width="900.1" height="606.3" rx="35.8" ry="35.8"/>
  <rect class="st3" x="1541.5" y="284" width="30.3" height="30.3"/>
  <rect class="st3" x="1541.5" y="332.9" width="30.3" height="30.3"/>
  <rect class="st3" x="1541.5" y="381.7" width="30.3" height="30.3"/>
  <rect class="st3" x="1541.5" y="430.5" width="30.3" height="30.3"/>
  <rect class="st3" x="1541.5" y="479.3" width="30.3" height="30.3"/>
  <path class="st12" d="M429.8,714.7c-8.7,3.3-19,3.2-26.8-1.6s-11-8-13.7-14.6-3.2-7.8-3.8-11.9c-2.3-14,0-27.1,5.7-40,4-9.1,10.6-16.4,18.8-22.3,7.8-5.6,16.4-3.9,23.4,1.9s10.2,12,13.4,18.4c9.8,19.6,9.6,41.4-3.5,59.4-3.6,4.9-7.2,8.4-13.5,10.8Z"/>
  <path class="st12" d="M516.8,749.5c-7.6,5.4-17.6,7.8-26.3,5.1s-12.6-5-16.9-10.7-5-6.8-6.7-10.6c-5.7-13-6.7-26.3-4.5-40.2,1.6-9.8,6.1-18.5,12.6-26.3,6.1-7.3,14.9-7.9,23.1-4.1,6.7,3.1,12.8,9,17.6,14.4,14.4,16.5,19.7,37.7,11.5,58.4s-4.8,10-10.4,13.9Z"/>
  <path class="st12" d="M465.3,593.7c-5.1-7.8-7.1-17.9-4-26.5s5.5-12.4,11.5-16.4,7-4.7,10.9-6.2c13.3-5.1,26.6-5.6,40.3-2.7,9.8,2,18.3,6.9,25.7,13.7,7.1,6.4,7.2,15.2,3,23.3s-9.6,12.4-15.2,16.9c-17.1,13.7-38.5,18-58.8,9-5.5-2.5-9.7-5.3-13.4-11Z"/>
</svg>