<?xml version="1.0" encoding="UTF-8"?>
<svg id="Layer_1" xmlns="http://www.w3.org/2000/svg" version="1.1" viewBox="0 0 2193.2 1233">
  <!-- Generator: Adobe Illustrator 29.3.0, SVG Export Plug-In . SVG Version: 2.1.0 Build 146)  -->
  <defs>
    <style>
      .st0 {
        fill: #f1e8c4;
      }

      .st0, .st1, .st2 {
        stroke: #000;
        stroke-miterlimit: 10;
      }

      .st1 {
        fill: #efe9d4;
      }

      .st2 {
        fill: #c3bca0;
      }
    </style>
  </defs>
  <path class="st0" d="M905.7,711.2c-64-304.7,180.5-593.2,486.3-623.6,382.2-39.6,686.7,332.1,563.9,698.3-70.5,220.6-295.6,376.6-527,366.3-247.4-4-476.9-201.5-523-440.2l-.2-.8ZM1393.4,1131.8c158.1,16.3,322.2-44,429.9-161.2,245-262.7,147.7-701.9-188.6-831.7-329.6-130.2-696.1,106.9-705,463-11.5,268.1,194.9,506,462.8,529.7h.9Z"/>
  <g>
    <path class="st2" d="M1527,1128.4c-48.2,6.9-83.2,9.9-134.4,4.2-273.6-27.4-478.1-264.9-463.3-540.6,14-262.4,226.3-473.9,488.8-487.1,275.8-13.8,512.6,191.6,539,465.2,26.1,270.3-162,514.6-430,558.3ZM1433,193.3c-235.5,0-426.4,190.9-426.4,426.4s190.9,426.4,426.4,426.4,426.4-190.9,426.4-426.4-190.9-426.4-426.4-426.4Z"/>
    <circle class="st1" cx="1433" cy="619.7" r="426.4"/>
    <path class="st2" d="M889.4,538.1c5.2-2.5,25-3,26.4,4.3-.7,41.9-6.8,81.8-1,123.3,1.9,13.5,1.4,25.2-7.1,34.6-15.3,2.2-27.7-.8-39.5-6.7-71.4-35.5-176.7-29.9-260.8-32.7-89.8-3-175.9,5.9-265.7,15.2-47.6,4.9-94.9,10.9-141.6,1.1-24.8-5.2-34.6-39.2-33.7-60.6.9-20,11.7-51,36.1-55.4,43.7-8,89.2-4.4,134.9,1.1,138.8,16.9,273.6,19.9,413,10.3,50.8-3.5,94.2-15.2,138.9-34.5ZM309.5,601.2c-20.8-3-96.6-10.9-93.6,19.7,2.8,28.1,109.3,26.6,105.9-3.9-.5-4.9-4.1-14.5-12.3-15.7Z"/>
  </g>
</svg>